<svg width="624" height="351" xmlns="http://www.w3.org/2000/svg" xmlns:xlink="http://www.w3.org/1999/xlink" overflow="hidden"><defs><clipPath id="clip0"><rect x="0" y="0" width="624" height="351"/></clipPath></defs><g clip-path="url(#clip0)"><path d="M0 0 624 0 624 351 0 351Z" fill="#FFFFFF"/><text font-family="Calibri Light,Calibri Light_MSFontService,sans-serif" font-weight="300" font-size="37" transform="matrix(0.78 0 0 0.78 183.945 62)">Insider Account Abuse</text><path d="M205.53 191.88 307.71 100.23 409.89 191.88 307.71 283.53Z" stroke="#2F528F" stroke-width="0.65" stroke-miterlimit="8" fill="#D9D9D9" fill-rule="evenodd"/><text font-family="Calibri,Calibri_MSFontService,sans-serif" font-weight="700" font-size="15" transform="matrix(0.78 0 0 0.78 285.205 87)">Adversary<tspan font-size="15" x="-256.835" y="135.897">Capability</tspan><tspan font-size="15" x="5.08125" y="283.333">Victim</tspan><tspan font-size="15" x="246.29" y="135.897">Infrastructure</tspan><tspan font-weight="400" font-size="15" x="92.2271" y="5.12821">Operator</tspan><tspan font-weight="400" font-size="15" x="148.227" y="5.12821">: </tspan><tspan font-weight="400" font-size="15" x="158.406" y="5.12821">Individual with minimal or </tspan><tspan font-weight="400" font-size="15" x="157.54" y="23.0769">more skill</tspan><tspan font-weight="400" font-size="15" x="92.2271" y="41.0256">Customer</tspan><tspan font-weight="400" font-size="15" x="152.227" y="41.0256">: </tspan><tspan font-weight="400" font-size="15" x="158.79" y="41.0256">-</tspan><tspan font-weight="400" font-size="15" x="163.373" y="41.0256">N</tspan><tspan font-weight="400" font-size="15" x="173.373" y="41.0256">/</tspan><tspan font-weight="400" font-size="15" x="179.373" y="41.0256">A</tspan><tspan font-weight="400" font-size="15" x="188.373" y="41.0256">: </tspan><tspan font-weight="400" font-size="15" x="195.373" y="41.0256">Personal reasons</tspan><tspan font-weight="400" font-size="15" x="159.102" y="58.9744">-</tspan><tspan font-weight="400" font-size="15" x="163.685" y="58.9744">Organized crime</tspan><tspan font-weight="400" font-size="15" x="159.102" y="76.9231">-</tspan><tspan font-weight="400" font-size="15" x="163.685" y="76.9231">Business </tspan><tspan font-weight="400" font-size="15" x="219.519" y="76.9231">competitors</tspan></text><path d="M205.53 192.27 409.792 192.27" stroke="#4472C4" stroke-width="0.325" stroke-miterlimit="8" fill="none" fill-rule="evenodd"/><path d="M307.71 100.23 307.71 284.017" stroke="#4472C4" stroke-width="0.325" stroke-miterlimit="8" fill="none" fill-rule="evenodd"/><text font-family="Calibri,Calibri_MSFontService,sans-serif" font-weight="400" font-size="15" transform="matrix(0.78 0 0 0.78 445.38 213)">-<tspan font-size="15" x="4.58331" y="0">Enterprise applications</tspan><tspan font-size="15" x="0" y="17.9487">-</tspan><tspan font-size="15" x="4.58331" y="17.9487">Specialized accounting</tspan><tspan font-size="15" x="143.583" y="17.9487">-</tspan><tspan font-size="15" x="0" y="35.8974">related software</tspan><tspan font-size="15" x="0" y="53.8462">-</tspan><tspan font-size="15" x="4.58331" y="53.8462">Firm network storage</tspan><tspan font-size="15" x="-496.718" y="0">-</tspan>Misuse of account privileges<tspan font-size="15" x="-496.718" y="17.9487">-</tspan>Misconfigured privileges<tspan font-size="15" x="-496.718" y="35.8974">-</tspan>Privilege escalation<tspan font-size="15" x="-129.687" y="102.564">Assets</tspan><tspan font-size="15" x="-89.687" y="102.564">: </tspan><tspan font-size="15" x="-83.6208" y="102.564">-</tspan><tspan font-size="15" x="-79.0374" y="102.564">firm </tspan><tspan font-size="15" x="-50.3916" y="102.564">systems and </tspan><tspan font-size="15" x="27.5167" y="102.564">data</tspan><tspan font-size="15" x="-84.9999" y="120.513">-</tspan><tspan font-size="15" x="-80.4166" y="120.513">sensitive client dat</tspan><tspan font-size="15" x="32.8334" y="120.513">a</tspan><tspan font-size="15" x="-129.687" y="138.462">Additional Vulnerability</tspan><tspan font-size="15" x="18.313" y="138.462">: </tspan><tspan font-size="15" x="25.313" y="138.462">volume and variety </tspan><tspan font-size="15" x="-129.687" y="156.41">of </tspan><tspan font-size="15" x="-113.687" y="156.41">accounts</tspan></text></g></svg>