<svg width="624" height="351" xmlns="http://www.w3.org/2000/svg" xmlns:xlink="http://www.w3.org/1999/xlink" overflow="hidden"><defs><clipPath id="clip0"><rect x="0" y="0" width="624" height="351"/></clipPath></defs><g clip-path="url(#clip0)"><path d="M0 0 624 0 624 351 0 351Z" fill="#FFFFFF"/><text font-family="Calibri Light,Calibri Light_MSFontService,sans-serif" font-weight="300" font-size="37" transform="matrix(0.78 0 0 0.78 215.19 62)">Phishing Scheme</text><path d="M205.53 191.88 307.71 100.23 409.89 191.88 307.71 283.53Z" stroke="#2F528F" stroke-width="0.65" stroke-miterlimit="8" fill="#D9D9D9" fill-rule="evenodd"/><text font-family="Calibri,Calibri_MSFontService,sans-serif" font-weight="700" font-size="15" transform="matrix(0.78 0 0 0.78 285.205 87)">Adversary<tspan font-size="15" x="-256.835" y="135.897">Capability</tspan><tspan font-size="15" x="5.08125" y="283.333">Victim</tspan><tspan font-size="15" x="246.29" y="135.897">Infrastructure</tspan><tspan font-weight="400" font-size="15" x="92.2271" y="5.12821">Operator</tspan><tspan font-weight="400" font-size="15" x="148.227" y="5.12821">: </tspan><tspan font-weight="400" font-size="15" x="155.227" y="5.12821">Individual or organization </tspan><tspan font-weight="400" font-size="15" x="157.54" y="23.0769">minimal or more skill</tspan><tspan font-weight="400" font-size="15" x="92.2271" y="41.0256">Customer</tspan><tspan font-weight="400" font-size="15" x="152.227" y="41.0256">: </tspan><tspan font-weight="400" font-size="15" x="158.79" y="41.0256">-</tspan><tspan font-weight="400" font-size="15" x="163.373" y="41.0256">Organized crime</tspan><tspan font-weight="400" font-size="15" x="159.102" y="58.9744">-</tspan><tspan font-weight="400" font-size="15" x="163.685" y="58.9744">Client business competitor</tspan><tspan font-weight="400" font-size="15" x="325.544" y="58.9744">s</tspan></text><path d="M205.53 192.27 409.792 192.27" stroke="#4472C4" stroke-width="0.325" stroke-miterlimit="8" fill="none" fill-rule="evenodd"/><path d="M307.71 100.23 307.71 284.017" stroke="#4472C4" stroke-width="0.325" stroke-miterlimit="8" fill="none" fill-rule="evenodd"/><text font-family="Calibri,Calibri_MSFontService,sans-serif" font-weight="400" font-size="15" transform="matrix(0.78 0 0 0.78 445.38 213)">-<tspan font-size="15" x="4.58331" y="0">E</tspan><tspan font-size="15" x="11.875" y="0">-</tspan><tspan font-size="15" x="16.4583" y="0">mail services</tspan><tspan font-size="15" x="0" y="17.9487">-</tspan><tspan font-size="15" x="4.58331" y="17.9487">Compromised e</tspan><tspan font-size="15" x="100.904" y="17.9487">-</tspan><tspan font-size="15" x="105.487" y="17.9487">mail</tspan><tspan font-size="15" x="0" y="35.8974">account</tspan><tspan font-size="15" x="48.3833" y="35.8974">s</tspan><tspan font-size="15" x="-496.718" y="0">-</tspan>Misleadingly named e<tspan font-size="15" x="-358.489" y="0">-</tspan><tspan font-size="15" x="-353.906" y="0">mail </tspan><tspan font-size="15" x="-496.718" y="17.9487">account name</tspan><tspan font-size="15" x="-496.718" y="35.8974">-</tspan>E-<tspan font-size="15" x="-479.718" y="35.8974">mail</tspan><tspan font-size="15" x="-450.781" y="35.8974">domain and account </tspan><tspan font-size="15" x="-496.718" y="53.8462">spoofing</tspan><tspan font-size="15" x="-496.718" y="71.7949">-</tspan>E-<tspan font-size="15" x="-479.718" y="71.7949">mail account credential </tspan><tspan font-size="15" x="-496.718" y="89.7436">theft</tspan><tspan font-size="15" x="-129.687" y="88.4615">Persona</tspan>: <tspan font-size="15" x="-72.687" y="88.4615">Firm staff</tspan><tspan font-size="15" x="-129.687" y="106.41">Asset</tspan><tspan font-size="15" x="-95.687" y="106.41">: </tspan><tspan font-size="15" x="-88.687" y="106.41">Sensitive client data</tspan><tspan font-size="15" x="-129.687" y="124.359">Additional Vulnerability</tspan><tspan font-size="15" x="18.313" y="124.359">: </tspan><tspan font-size="15" x="25.313" y="124.359">volume </tspan><tspan font-size="15" x="-129.687" y="142.308">and variety of e</tspan><tspan font-size="15" x="-34.7791" y="142.308">-</tspan><tspan font-size="15" x="-30.1957" y="142.308">mail </tspan><tspan font-size="15" x="-129.687" y="160.256">communications</tspan></text></g></svg>